<svg version="1.1" xmlns="http://www.w3.org/2000/svg" style="display: block;" viewBox="0 0 2048 2048" width="1024" height="1024" preserveAspectRatio="none">
<defs>
	<linearGradient id="Gradient1" gradientUnits="userSpaceOnUse" x1="1205.66" y1="959.203" x2="1444.57" y2="996.98">
		<stop class="stop0" offset="0" stop-opacity="1" stop-color="rgb(191,79,22)"/>
		<stop class="stop1" offset="1" stop-opacity="1" stop-color="rgb(221,103,32)"/>
	</linearGradient>
	<linearGradient id="Gradient2" gradientUnits="userSpaceOnUse" x1="1445.38" y1="2005.37" x2="601.161" y2="16.2468">
		<stop class="stop0" offset="0" stop-opacity="1" stop-color="rgb(19,26,39)"/>
		<stop class="stop1" offset="1" stop-opacity="1" stop-color="rgb(91,71,57)"/>
	</linearGradient>
</defs>
<path transform="translate(0,0)" fill="url(#Gradient2)" d="M 1266.72 112.267 L 1483.75 112.144 L 1569.77 112.03 C 1635.07 111.912 1676.42 112.035 1738.61 139.41 C 1770.7 153.495 1799.92 173.36 1824.82 198.014 C 1886.74 258.907 1914.63 334.991 1915.03 420.921 L 1914.88 1256.33 L 1914.91 1495.48 C 1914.93 1553.87 1917.76 1617.72 1908.23 1674.86 C 1910.37 1697.8 1886.33 1740.15 1877.3 1761.66 C 1873.56 1770.56 1866.35 1781.27 1862.08 1790.21 C 1818.64 1884.36 1737.57 1947.34 1632.67 1955.75 C 1565.72 1961.12 1496.95 1956.97 1428.79 1957.5 L 896.25 1959.76 L 587.725 1958.44 L 497.66 1958.56 C 471.404 1958.59 445.316 1958.97 418.217 1955.28 C 337.78 1944.33 263.827 1909.33 214.894 1842.95 C 208.303 1834.01 188.436 1803.08 185.904 1794.34 C 179.758 1773.12 136.071 1701.07 141.867 1682.88 C 129.924 1634.15 133.159 1554.57 133.145 1502.52 L 132.979 1270.97 L 132.943 425.67 C 133.643 336.538 158.8 260.509 223.629 197.113 C 273.457 148.701 338.602 119.172 407.853 113.609 C 441.52 110.605 487.64 111.945 522.388 112.241 C 574.059 111.481 626.872 112.147 678.657 112.128 L 994.565 112.145 L 1176.41 112.122 C 1201.96 112.113 1242.33 110.845 1266.72 112.267 z"/>
<path transform="translate(0,0)" fill="rgb(99,72,51)" d="M 522.388 112.241 C 574.059 111.481 626.872 112.147 678.657 112.128 L 994.565 112.145 L 1176.41 112.122 C 1201.96 112.113 1242.33 110.845 1266.72 112.267 C 1264.58 114.193 1220.67 113.41 1214.03 113.408 L 1102.26 114.249 C 1090.05 114.3 1050.6 113.339 1041.41 116.14 L 1041.37 118.045 C 1045.94 122.342 1043.72 126.962 1046.02 131.08 C 1053.09 143.735 1054.77 152.934 1056.43 167.338 C 1058.08 181.594 1054.83 201.565 1049.57 215.175 C 1047.31 220.998 1042.77 226.076 1041.96 232.404 C 1041.4 235.832 1041.3 238.762 1039.12 240.894 L 1036.82 238.709 C 1034.92 244.194 1034.89 251.111 1034.02 256.93 C 1032.41 267.665 1030.76 279.656 1027.93 290.069 C 1025.98 297.284 1019.24 313.412 1013.03 316.885 C 1012.31 319.19 1011.94 319.89 1010.93 322.1 L 1009.48 322.538 L 1008.45 320.538 C 1003.9 347.116 972.705 381.498 952.689 399.011 C 947.398 403.201 941.264 406.989 935.848 410.948 C 921.831 421.193 911.149 434.808 895.1 442.05 C 891.397 445.982 890.781 451.502 885.369 454.061 C 871.038 460.835 855.06 460.729 841.024 468.629 C 839.748 469.347 826.284 473.552 825.194 473.569 C 792.013 474.095 754.536 478.803 722.074 471.036 L 720.493 471.924 L 719.491 469.607 C 710.283 470.742 695.651 460.809 690.715 460.634 C 685.682 460.456 654.997 448.464 656.984 448.256 C 635.747 450.476 625.384 432.65 609.411 422.008 C 599.872 415.791 589.302 411.845 581.164 402.992 C 577.856 399.184 578.257 390.965 575.701 386.483 C 568.505 378.769 564.799 377.559 559.126 367.843 L 558.444 366.651 L 557.841 366.921 L 556.895 369.553 C 546.739 376.241 540.51 343.35 529.24 345.822 C 526.581 340.283 527.712 346.596 521.767 342.278 C 519.514 337.106 514.844 333.385 514.439 329.137 C 516.99 326.767 520.226 327.689 524.526 326.495 C 520.685 318.866 516.145 313.026 513.361 304.893 C 511.238 298.69 514.651 284.128 512.955 279.615 C 508.99 269.065 506.644 258.52 503.422 248.065 C 500.434 238.368 496.314 235.185 495.005 224.29 C 494.15 217.167 494.543 172.788 493.443 169.831 C 491.162 169.533 490.679 169.411 488.477 168.732 C 487.292 163.875 493.895 153.194 496.037 147.742 C 500.347 136.774 503.003 126.768 504.851 115.112 C 507.367 113.718 529.149 113.854 534.323 113.734 C 530.296 113.6 525.121 114.193 522.388 112.241 z"/><path transform="translate(0,0)" fill="rgb(248,178,44)" d="M 896.035 619.411 C 908.759 604.734 1017.8 469.25 1023.75 467.081 C 1058.3 507.671 1092.15 548.853 1125.29 590.608 C 1144.84 615.177 1163.5 637.816 1180.74 664.199 C 1201.26 695.596 1225.91 726.25 1245.55 758.177 C 1255.39 771.247 1265.07 792.386 1273.51 807.046 C 1330.69 906.321 1366.09 1016.67 1405.75 1123.66 C 1410.83 1137.38 1417.2 1153.94 1420.97 1167.78 C 1364.19 1168.57 1307.19 1167.43 1250.38 1167.78 C 1242.1 1167.83 1233.41 1167.96 1225.17 1167.7 L 1223.85 1166.13 L 1218.86 1170.22 C 1220.62 1177.2 1208.82 1207.31 1206.04 1215.92 C 1197.36 1242.8 1188.62 1269.78 1180.09 1296.72 C 1174.84 1313.49 1165.2 1340.17 1163.07 1356.82 L 1169.53 1360.88 C 1181.23 1359.92 1243.49 1390.03 1258.07 1393.86 C 1263.33 1395.25 1292.98 1408.05 1298.15 1411.05 C 1291.52 1415.27 1254.58 1430.61 1245.01 1435.09 C 1171.87 1469.18 1097.72 1501.06 1022.65 1530.66 C 945.653 1499.72 869.381 1467.01 793.894 1432.55 C 784.016 1427.94 756.104 1416.65 748.732 1411.01 L 747.862 1410.74 C 745.125 1408.16 730.629 1378.2 727.9 1372.84 C 705.101 1328.01 682.598 1283.04 660.392 1237.92 C 650.672 1218.19 636.259 1186.29 625.759 1167.82 C 643.369 1116.92 661.549 1066.21 680.295 1015.71 C 706.483 945.168 733.248 875.651 771.339 810.626 C 781.468 793.335 789.648 773.057 801.122 756.716 C 824.196 722.633 847.633 688.798 871.428 655.216 C 880.279 642.681 885.769 631.053 896.035 619.411 z"/>
<path transform="translate(0,0)" fill="rgb(204,75,23)" d="M 822.276 1166.89 L 823.436 1168.02 C 869.527 1196.92 917.214 1223.34 963.696 1251.51 C 979.655 1261.18 1008.18 1275.92 1022.1 1286.34 L 1030.6 1281.06 C 1029.04 1284.43 1028.33 1284.42 1028.89 1287.39 C 1058.8 1303.79 1089.02 1319.61 1119.55 1334.83 C 1131.43 1340.88 1151.46 1352.15 1163.07 1356.82 L 1169.53 1360.88 C 1181.23 1359.92 1243.49 1390.03 1258.07 1393.86 C 1263.33 1395.25 1292.98 1408.05 1298.15 1411.05 C 1291.52 1415.27 1254.58 1430.61 1245.01 1435.09 C 1171.87 1469.18 1097.72 1501.06 1022.65 1530.66 C 945.653 1499.72 869.381 1467.01 793.894 1432.55 C 784.016 1427.94 756.104 1416.65 748.732 1411.01 L 747.862 1410.74 C 745.125 1408.16 730.629 1378.2 727.9 1372.84 C 705.101 1328.01 682.598 1283.04 660.392 1237.92 C 650.672 1218.19 636.259 1186.29 625.759 1167.82 L 786.612 1167.8 C 793.627 1166.94 814.191 1167.06 822.276 1166.89 z"/>
<path transform="translate(0,0)" fill="rgb(114,32,18)" d="M 822.276 1166.89 L 823.436 1168.02 C 825.575 1176.82 832.154 1195.09 834.759 1202.84 C 841.121 1221.77 878.888 1346.02 876.585 1358.26 C 866.271 1363.18 852.617 1367.84 841.725 1372.1 C 820.324 1380.45 799.01 1389.03 777.786 1397.82 C 771.463 1400.45 753.414 1407.67 748.732 1411.01 L 747.862 1410.74 C 745.125 1408.16 730.629 1378.2 727.9 1372.84 C 705.101 1328.01 682.598 1283.04 660.392 1237.92 C 650.672 1218.19 636.259 1186.29 625.759 1167.82 L 786.612 1167.8 C 793.627 1166.94 814.191 1167.06 822.276 1166.89 z"/>
<path transform="translate(0,0)" fill="rgb(170,61,17)" d="M 822.276 1166.89 L 823.436 1168.02 C 825.575 1176.82 832.154 1195.09 834.759 1202.84 C 841.121 1221.77 878.888 1346.02 876.585 1358.26 C 866.271 1363.18 852.617 1367.84 841.725 1372.1 C 820.324 1380.45 799.01 1389.03 777.786 1397.82 C 771.463 1400.45 753.414 1407.67 748.732 1411.01 L 747.862 1410.74 C 748.935 1404.31 753.672 1389.64 755.786 1382.57 L 773.49 1324.59 C 789.055 1273.4 804.452 1218.62 820.864 1167.98 C 809.366 1168.08 798.111 1168.24 786.612 1167.8 C 793.627 1166.94 814.191 1167.06 822.276 1166.89 z"/>
<path transform="translate(0,0)" fill="rgb(114,32,18)" d="M 748.732 1411.01 C 753.414 1407.67 771.463 1400.45 777.786 1397.82 C 799.01 1389.03 820.324 1380.45 841.725 1372.1 C 852.617 1367.84 866.271 1363.18 876.585 1358.26 C 879.138 1363.64 897.896 1382.16 903.616 1388.57 C 934.65 1423.91 965.978 1458.98 997.595 1493.79 C 1003.03 1499.85 1018.51 1518.54 1023.19 1522.96 C 1037.88 1505.15 1156.5 1368.84 1169.53 1360.88 C 1181.23 1359.92 1243.49 1390.03 1258.07 1393.86 C 1263.33 1395.25 1292.98 1408.05 1298.15 1411.05 C 1291.52 1415.27 1254.58 1430.61 1245.01 1435.09 C 1171.87 1469.18 1097.72 1501.06 1022.65 1530.66 C 945.653 1499.72 869.381 1467.01 793.894 1432.55 C 784.016 1427.94 756.104 1416.65 748.732 1411.01 z"/>
<path transform="translate(0,0)" fill="rgb(148,45,16)" d="M 1022.1 1286.34 L 1030.6 1281.06 C 1029.04 1284.43 1028.33 1284.42 1028.89 1287.39 C 1058.8 1303.79 1089.02 1319.61 1119.55 1334.83 C 1131.43 1340.88 1151.46 1352.15 1163.07 1356.82 L 1169.53 1360.88 C 1156.5 1368.84 1037.88 1505.15 1023.19 1522.96 L 1022.1 1286.34 z"/>
<path transform="translate(0,0)" fill="url(#Gradient1)" d="M 1245.55 758.177 C 1255.39 771.247 1265.07 792.386 1273.51 807.046 C 1330.69 906.321 1366.09 1016.67 1405.75 1123.66 C 1410.83 1137.38 1417.2 1153.94 1420.97 1167.78 C 1364.19 1168.57 1307.19 1167.43 1250.38 1167.78 C 1242.1 1167.83 1233.41 1167.96 1225.17 1167.7 L 1223.85 1166.13 C 1216.85 1134.04 1211.54 1100.61 1205.21 1068.27 C 1202.14 1052.54 1198.19 1032.42 1196.41 1016.69 C 1195.69 1010.3 1200.54 988.632 1201.97 981.489 L 1211.41 933.376 C 1222.21 877.315 1232.87 813.154 1245.55 758.177 z"/>
<path transform="translate(0,0)" fill="rgb(230,119,35)" d="M 625.759 1167.82 C 643.369 1116.92 661.549 1066.21 680.295 1015.71 C 706.483 945.168 733.248 875.651 771.339 810.626 C 781.468 793.335 789.648 773.057 801.122 756.716 C 814.991 820.599 824.08 888.478 837.733 952.66 C 839.423 960.605 846.086 1001.2 847.875 1005.81 C 848.354 1008.85 849.437 1015.63 849.07 1018.41 C 845.506 1045.46 839.58 1074.17 834.497 1100.91 L 825.903 1146.25 C 824.942 1151.51 823.496 1162.12 822.276 1166.89 C 814.191 1167.06 793.627 1166.94 786.612 1167.8 L 625.759 1167.82 z"/>
<path transform="translate(0,0)" fill="rgb(251,212,76)" d="M 801.122 756.716 C 824.196 722.633 847.633 688.798 871.428 655.216 C 880.279 642.681 885.769 631.053 896.035 619.411 C 899.654 631.521 901.239 654.347 902.525 667.457 L 909.683 740.745 C 910.184 745.813 911.632 765.306 913.499 768.847 C 894.65 848.224 873.74 931.604 851.549 1010.16 C 851.459 1010.7 851.368 1011.24 851.278 1011.77 C 849.55 1009.15 849.571 1007.99 847.875 1005.81 C 846.086 1001.2 839.423 960.605 837.733 952.66 C 824.08 888.478 814.991 820.599 801.122 756.716 z"/>
<path transform="translate(0,0)" fill="rgb(252,249,133)" d="M 896.035 619.411 C 908.759 604.734 1017.8 469.25 1023.75 467.081 C 1024.92 505.343 1023.71 550.243 1023.38 588.722 C 1009.1 609.28 990.696 641.979 977.456 663.968 L 913.499 768.847 C 911.632 765.306 910.184 745.813 909.683 740.745 L 902.525 667.457 C 901.239 654.347 899.654 631.521 896.035 619.411 z"/>
<path transform="translate(0,0)" fill="rgb(170,61,17)" d="M 1030.6 1281.06 C 1054.76 1266.43 1080.02 1252.39 1104.45 1238.05 L 1218.86 1170.22 C 1220.62 1177.2 1208.82 1207.31 1206.04 1215.92 C 1197.36 1242.8 1188.62 1269.78 1180.09 1296.72 C 1174.84 1313.49 1165.2 1340.17 1163.07 1356.82 C 1151.46 1352.15 1131.43 1340.88 1119.55 1334.83 C 1089.02 1319.61 1058.8 1303.79 1028.89 1287.39 C 1028.33 1284.42 1029.04 1284.43 1030.6 1281.06 z"/>
<path transform="translate(0,0)" fill="rgb(114,32,18)" d="M 1223.85 1166.13 L 1225.17 1167.7 C 1233.41 1167.96 1242.1 1167.83 1250.38 1167.78 C 1307.19 1167.43 1364.19 1168.57 1420.97 1167.78 L 1338.13 1334.56 C 1330.19 1350.42 1322.15 1366.22 1314.02 1381.98 C 1310.2 1389.29 1302.29 1403.45 1299.45 1410.76 L 1298.15 1411.05 C 1292.98 1408.05 1263.33 1395.25 1258.07 1393.86 C 1243.49 1390.03 1181.23 1359.92 1169.53 1360.88 L 1163.07 1356.82 C 1165.2 1340.17 1174.84 1313.49 1180.09 1296.72 C 1188.62 1269.78 1197.36 1242.8 1206.04 1215.92 C 1208.82 1207.31 1220.62 1177.2 1218.86 1170.22 L 1223.85 1166.13 z"/>
<path transform="translate(0,0)" fill="rgb(148,45,16)" d="M 1223.85 1166.13 L 1225.17 1167.7 C 1230.39 1188.58 1239.25 1213.89 1245.59 1234.96 L 1299.45 1410.76 L 1298.15 1411.05 C 1292.98 1408.05 1263.33 1395.25 1258.07 1393.86 C 1243.49 1390.03 1181.23 1359.92 1169.53 1360.88 L 1163.07 1356.82 C 1165.2 1340.17 1174.84 1313.49 1180.09 1296.72 C 1188.62 1269.78 1197.36 1242.8 1206.04 1215.92 C 1208.82 1207.31 1220.62 1177.2 1218.86 1170.22 L 1223.85 1166.13 z"/>
<path transform="translate(0,0)" fill="rgb(99,72,51)" d="M 1061.03 138.23 C 1066.81 142.312 1072.48 168.589 1069.58 174.995 L 1068.33 172.609 C 1066.05 163.877 1058.59 145.239 1061.03 138.23 z"/>
</svg>