<svg version="1.1" xmlns="http://www.w3.org/2000/svg" style="display: block;" viewBox="0 0 2048 2048" width="1024" height="1024" preserveAspectRatio="none">
<defs>
	<linearGradient id="Gradient1" gradientUnits="userSpaceOnUse" x1="1008.51" y1="846.203" x2="1005.7" y2="1477.68">
		<stop class="stop0" offset="0" stop-opacity="1" stop-color="rgb(243,119,9)"/>
		<stop class="stop1" offset="1" stop-opacity="1" stop-color="rgb(248,192,17)"/>
	</linearGradient>
	<linearGradient id="Gradient2" gradientUnits="userSpaceOnUse" x1="1094.29" y1="1900.61" x2="1092.42" y2="1690.64">
		<stop class="stop0" offset="0" stop-opacity="1" stop-color="rgb(95,85,85)"/>
		<stop class="stop1" offset="1" stop-opacity="1" stop-color="rgb(81,87,92)"/>
	</linearGradient>
	<linearGradient id="Gradient3" gradientUnits="userSpaceOnUse" x1="1326.62" y1="1430.29" x2="170.235" y2="-121.613">
		<stop class="stop0" offset="0" stop-opacity="1" stop-color="rgb(196,192,190)"/>
		<stop class="stop1" offset="1" stop-opacity="1" stop-color="rgb(227,226,223)"/>
	</linearGradient>
	<linearGradient id="Gradient4" gradientUnits="userSpaceOnUse" x1="1624.81" y1="1875.77" x2="691.412" y2="544.619">
		<stop class="stop0" offset="0" stop-opacity="1" stop-color="rgb(29,25,27)"/>
		<stop class="stop1" offset="1" stop-opacity="1" stop-color="rgb(70,71,71)"/>
	</linearGradient>
</defs>
<path transform="translate(0,0)" fill="url(#Gradient4)" d="M 0 0 L 2048 0 L 2048 2048 L 1567.34 2048 L 597.737 2048 L 0 2048 L 0 0 z"/>
<path transform="translate(0,0)" fill="url(#Gradient3)" d="M 0 0 L 2048 0 L 2048 2048 L 1567.34 2048 C 1570.17 2045.94 1570.88 2044.79 1574.48 2044.74 C 1586.32 2044.6 1598.32 2044.96 1610.17 2044.82 C 1645.31 2044.48 1680.44 2044.46 1715.57 2044.77 L 1862.23 2044.66 C 1904.17 2044.95 1946.11 2044.95 1988.05 2044.67 C 2001.14 2044.51 2033.13 2045.93 2044.29 2044.12 C 2044.95 2040.5 2044.68 2020.15 2044.67 2015.56 L 2044.61 1949.76 L 2044.51 1712.31 L 2044.51 828.345 L 2044.61 657.996 C 2044.55 634.094 2044.81 610.13 2044.61 586.234 C 2044.58 581.909 2032.58 562.882 2029.75 558.532 C 2018.34 540.966 2005.24 524.508 1992.81 507.644 C 1984.39 496.214 1976.31 484.254 1967.31 473.267 C 1954.62 459.067 1941.02 444.801 1928.29 430.521 C 1925.9 427.524 1922.17 425.461 1919.7 422.676 C 1914.54 416.855 1910.42 409.553 1904.62 404.358 C 1894.23 395.215 1885.38 384.965 1875.31 375.508 C 1868.01 368.655 1856.9 362.573 1848.23 357.359 C 1844.21 354.939 1839.19 353.692 1834.52 351.204 C 1833.98 353.524 1839.72 363.312 1841.35 366.475 L 1840.28 368.259 C 1825.87 337.482 1804.86 311.308 1782.32 286.214 C 1776.12 275.973 1728.01 238.519 1715.83 232.675 C 1710.34 228.142 1702.05 224.104 1695.61 220.665 C 1685.33 215.007 1672.72 210.522 1661.64 206.187 C 1601.66 182.731 1529.23 180.762 1465.66 179.987 C 1432.96 179.43 1400.25 179.189 1367.55 179.264 L 1116.42 179.171 L 759.432 179.346 L 605.095 179.903 C 548.303 180.634 484.643 181.036 428.85 195.394 C 417.157 198.403 405.156 201.801 393.754 205.593 C 317.379 233.316 258.905 288.622 219.526 358.966 C 205.453 386.266 194.57 415.904 187.799 445.866 C 184.995 458.276 185.823 472.634 183.604 484.855 C 175.451 529.748 175.97 572.37 175.968 617.897 L 175.982 734.267 L 175.963 837.521 C 175.958 852.266 175.223 876.635 176.149 890.654 C 175.455 938.448 175.985 987.303 176.008 1035.22 L 175.969 1283.06 L 175.933 1425.79 C 175.937 1456.77 175.284 1488.37 177.452 1519.22 C 178.556 1534.93 181.978 1550.48 184.071 1566 C 185.641 1577.64 185.07 1590.41 187.894 1601.93 C 198.091 1643.54 211.04 1678.18 235.126 1714.16 C 241.619 1723.86 252.681 1737.84 257.787 1746.56 C 250.686 1743.55 232.51 1711.59 226.548 1704.71 C 225.728 1704.99 224.908 1705.28 224.088 1705.56 C 216.256 1717.99 230.811 1779.66 247.864 1785.96 C 268.582 1793.62 270.22 1823.26 283.482 1835.08 C 311.186 1859.76 336.049 1894.27 361.979 1919.36 C 383.143 1939.84 404.644 1950.29 416.796 1980.71 C 423.802 1992.62 464.427 2019.66 474.685 2031.89 C 508.722 2056.65 561.984 2037.21 597.383 2046.36 L 597.737 2048 L 0 2048 L 0 0 z"/>
<path transform="translate(0,0)" fill="rgb(73,73,73)" d="M 176.149 890.654 C 175.223 876.635 175.958 852.266 175.963 837.521 L 175.982 734.267 L 175.968 617.897 C 175.97 572.37 175.451 529.748 183.604 484.855 C 185.823 472.634 184.995 458.276 187.799 445.866 C 194.57 415.904 205.453 386.266 219.526 358.966 C 258.905 288.622 317.379 233.316 393.754 205.593 C 405.156 201.801 417.157 198.403 428.85 195.394 C 484.643 181.036 548.303 180.634 605.095 179.903 L 759.432 179.346 L 1116.42 179.171 L 1367.55 179.264 C 1400.25 179.189 1432.96 179.43 1465.66 179.987 C 1529.23 180.762 1601.66 182.731 1661.64 206.187 C 1672.72 210.522 1685.33 215.007 1695.61 220.665 C 1691.75 221.867 1679.29 223.657 1678.19 225.827 C 1671.92 238.126 1657.85 225.213 1649.59 229.692 C 1647.6 232.674 1646.34 234.127 1645.43 237.635 C 1646.47 242.396 1646.92 240.241 1649.97 243.044 C 1651.55 244.491 1649.99 254.78 1651.17 256.885 C 1655.48 264.576 1666.47 277.214 1665.76 286.694 C 1661.78 292.395 1639.07 292.909 1631.68 291.856 C 1628.28 291.372 1623.86 286.062 1619.99 286.289 C 1605.84 292.934 1584.32 301.351 1571.81 309.829 C 1561.24 316.989 1552.97 329.283 1540.87 331.602 C 1536.6 332.42 1519.33 330.446 1517.2 330.985 C 1510.27 332.739 1489.29 335.547 1487.11 341.11 C 1475.67 370.381 1501.75 392.325 1453.47 405.356 C 1445.08 407.619 1428.21 409.881 1417.54 412.217 C 1415.92 415.832 1414.18 423.027 1414.26 427.326 C 1414.4 434.962 1401.29 449.212 1405.97 454.762 C 1408 457.174 1414.47 460.141 1415.87 462.928 L 1412.3 466.344 C 1413.6 470.944 1431.52 475.067 1433.56 478.436 L 1430.86 484.38 C 1436.85 488.223 1442.29 489.051 1445.72 481.649 C 1448.18 484.022 1448.25 485.853 1449.47 489.39 C 1448.84 493.584 1445.87 499.633 1443.33 502.994 C 1438.61 505.699 1438.28 506.131 1433.03 506.54 C 1434.4 509.105 1435.07 509.562 1437.08 511.636 C 1436.65 518.665 1414.88 529.089 1408.33 530.307 C 1383.44 534.936 1358.6 533.689 1333.57 534.014 L 1223.86 535.207 C 1196.06 535.262 1166.76 535.929 1138.99 537.587 C 1127.79 538.255 1072.67 532.939 1067.19 538.491 L 1070.82 539.585 C 1061.62 539.465 1052.42 539.44 1043.22 539.51 C 1040.57 542.673 1039.26 544.922 1037.01 547.746 C 1026.6 543.546 1022.96 544.214 1012.81 548.457 C 986.623 560.636 962.702 569.627 936.442 580.829 L 817.53 632.033 C 802.412 638.472 777.469 644.078 766.098 654.306 C 753.863 667.395 746.095 678.12 735.037 691.047 L 647.793 792.422 C 640.248 801.188 616.584 830.505 609.646 835.357 L 600.611 843.832 L 600.495 846.016 C 591.73 845.295 571.057 846.008 561.095 846.002 L 477.444 845.947 L 395.845 846.111 C 386.069 846.172 364.674 845.718 356.137 846.996 C 350.513 847.18 343.47 848.197 338.981 845.088 L 338.743 842.876 C 341.537 838.023 347.571 832.433 351.671 828.268 C 341.691 828.803 337.129 843.536 334.525 851.173 L 331.338 850.632 C 325.815 855.045 328.294 862.141 321.055 862.8 L 318.419 861.436 C 318.515 861.319 314.435 881.325 314.459 881.909 C 309.965 875.766 315.565 874.188 308.973 872.399 L 310.71 870.624 L 309.903 870.781 C 309.71 871.165 304.156 882.632 304.343 882.491 C 294.338 890.045 293.94 875.278 289.098 869.792 C 285.478 865.691 284.615 869.519 283.326 864.857 C 284.56 860.658 287.336 853.226 286.658 849.253 C 283.66 845.54 281.914 846.401 277.55 847.606 C 268.424 856.868 270.579 861.592 258.239 861.437 C 250.69 861.342 235.389 874.998 228.114 878.192 C 217.635 882.793 203.226 885.598 194.407 894.059 C 191.519 896.83 190.892 904.949 189.661 907.581 C 186.559 914.218 183.13 914.151 183.278 922.707 L 182.413 922.644 C 181.063 920.209 179.944 917.093 177.948 915.992 L 177.119 925.372 C 176.97 917.666 178.452 868.988 177.734 867.201 C 174.059 870.843 177.941 884.977 176.149 890.654 z"/>
<path transform="translate(0,0)" fill="rgb(240,129,15)" d="M 612.908 540.063 L 1015.37 540.027 C 1014.83 544.222 1014.61 544.542 1012.81 548.457 C 986.623 560.636 962.702 569.627 936.442 580.829 L 817.53 632.033 C 802.412 638.472 777.469 644.078 766.098 654.306 C 753.863 667.395 746.095 678.12 735.037 691.047 L 647.793 792.422 C 640.248 801.188 616.584 830.505 609.646 835.357 L 608.033 834.725 C 605.566 836.793 604.527 837.725 601.68 839.389 C 604.38 830.724 600.786 799.819 602.525 788.277 C 603.415 782.366 607.845 771.734 607.73 768.056 C 606.507 728.854 608.193 689.675 608.137 650.454 C 608.125 616.441 613.431 579.971 605.305 546.566 L 612.908 540.063 z"/>
<path transform="translate(0,0)" fill="rgb(203,100,35)" d="M 605.305 546.566 C 613.431 579.971 608.125 616.441 608.137 650.454 C 608.193 689.675 606.507 728.854 607.73 768.056 C 607.845 771.734 603.415 782.366 602.525 788.277 C 600.786 799.819 604.38 830.724 601.68 839.389 C 604.527 837.725 605.566 836.793 608.033 834.725 L 609.646 835.357 L 600.611 843.832 L 600.495 846.016 C 591.73 845.295 571.057 846.008 561.095 846.002 L 477.444 845.947 L 395.845 846.111 C 386.069 846.172 364.674 845.718 356.137 846.996 C 350.513 847.18 343.47 848.197 338.981 845.088 L 338.743 842.876 C 341.537 838.023 347.571 832.433 351.671 828.268 C 359.604 823.087 398.717 777.239 406.483 768.517 L 542.019 618.681 C 556.199 602.859 568.836 586.363 583.675 570.872 C 591.154 563.065 596.722 554.54 605.305 546.566 z"/>
<path transform="translate(0,0)" fill="rgb(244,176,5)" d="M 1015.37 540.027 L 1043.22 539.51 C 1040.57 542.673 1039.26 544.922 1037.01 547.746 C 1026.6 543.546 1022.96 544.214 1012.81 548.457 C 1014.61 544.542 1014.83 544.222 1015.37 540.027 z"/>
<path transform="translate(0,0)" fill="rgb(163,158,156)" d="M 1840.28 368.259 L 1841.35 366.475 C 1839.72 363.312 1833.98 353.524 1834.52 351.204 C 1839.19 353.692 1844.21 354.939 1848.23 357.359 C 1856.9 362.573 1868.01 368.655 1875.31 375.508 C 1885.38 384.965 1894.23 395.215 1904.62 404.358 C 1910.42 409.553 1914.54 416.855 1919.7 422.676 C 1922.17 425.461 1925.9 427.524 1928.29 430.521 C 1941.02 444.801 1954.62 459.067 1967.31 473.267 C 1976.31 484.254 1984.39 496.214 1992.81 507.644 C 2005.24 524.508 2018.34 540.966 2029.75 558.532 C 2032.58 562.882 2044.58 581.909 2044.61 586.234 C 2044.81 610.13 2044.55 634.094 2044.61 657.996 L 2044.51 828.345 L 2044.51 1712.31 L 2044.61 1949.76 L 2044.67 2015.56 C 2044.68 2020.15 2044.95 2040.5 2044.29 2044.12 C 2033.13 2045.93 2001.14 2044.51 1988.05 2044.67 C 1946.11 2044.95 1904.17 2044.95 1862.23 2044.66 L 1715.57 2044.77 C 1680.44 2044.46 1645.31 2044.48 1610.17 2044.82 C 1598.32 2044.96 1586.32 2044.6 1574.48 2044.74 C 1570.88 2044.79 1570.17 2045.94 1567.34 2048 L 597.737 2048 L 597.383 2046.36 C 561.984 2037.21 508.722 2056.65 474.685 2031.89 C 464.427 2019.66 423.802 1992.62 416.796 1980.71 C 404.644 1950.29 383.143 1939.84 361.979 1919.36 C 336.049 1894.27 311.186 1859.76 283.482 1835.08 C 270.22 1823.26 268.582 1793.62 247.864 1785.96 C 230.811 1779.66 216.256 1717.99 224.088 1705.56 C 224.908 1705.28 225.728 1704.99 226.548 1704.71 C 232.51 1711.59 250.686 1743.55 257.787 1746.56 C 278.596 1770.16 309.655 1798.98 335.548 1815.99 C 345.658 1822.08 362.788 1830.73 373.836 1835.17 C 378.294 1836.86 393.356 1837.89 396.578 1840.04 C 413.232 1851.13 425.864 1851.47 445.123 1854.3 C 451.284 1855.21 458.463 1862.82 467.742 1863.47 C 535.402 1868.18 603.316 1867.31 671.104 1867.29 L 1038 1866.48 L 1394.38 1867.42 C 1437.87 1867.28 1481.64 1867.92 1525 1865.63 C 1540.3 1864.83 1556.98 1865.17 1572.23 1863.63 C 1581.94 1862.48 1592.68 1857.74 1602.05 1856.14 C 1623.02 1852.58 1641.09 1848.94 1660.28 1839.47 C 1665.31 1836.98 1674.13 1835.7 1680.06 1832.99 C 1705.71 1821.25 1728.96 1805.3 1751.61 1788.67 C 1757.75 1784.16 1767.01 1773.99 1773.01 1768.49 C 1775.72 1764.96 1785.85 1759.47 1787.93 1756.15 C 1796.14 1743.04 1804.33 1730.17 1813.62 1717.77 C 1819.8 1709.53 1824.82 1699.23 1831.25 1691.39 L 1832.56 1689.82 C 1835.5 1689.16 1837.28 1685.18 1838.78 1682.73 C 1840.85 1675.17 1850.25 1659.24 1853.24 1649.32 C 1856.02 1640.07 1861.42 1629.4 1863.45 1619.26 C 1864.23 1615.34 1865 1598.04 1865.81 1596.11 C 1870.08 1586.05 1870.15 1585.07 1872 1573.9 C 1874.79 1574.57 1874.33 1574.98 1876.49 1574.36 C 1875.62 1573.75 1874.76 1573.14 1873.89 1572.54 C 1873.09 1551.78 1876.46 1513.8 1877.45 1494.65 C 1879.47 1455.29 1878.02 1417.84 1878.57 1379.56 C 1880.05 1273.25 1880.36 1166.92 1879.48 1060.6 C 1879.36 1034.37 1879.61 1007.87 1878.82 981.66 C 1878.59 974.231 1878.44 966.761 1878.5 959.333 L 1879.01 753.444 C 1879.66 711.732 1879.75 670.013 1879.27 628.299 C 1879.23 612.95 1881.07 590.92 1879.57 576.195 C 1876.73 548.205 1873.45 521.489 1873.89 493.056 C 1874.06 482.409 1868.17 467.588 1866.92 456.551 C 1866.21 450.227 1865.99 438.599 1863.01 433.808 C 1862.93 422.893 1845.28 382.373 1840.28 368.259 z"/>
<path transform="translate(0,0)" fill="url(#Gradient2)" d="M 1832.56 1689.82 C 1835.5 1689.16 1837.28 1685.18 1838.78 1682.73 C 1837.87 1698.57 1824.79 1720.45 1818.26 1735.26 C 1813 1747.22 1800.65 1758.85 1794.5 1770.39 C 1793.57 1772.03 1795.44 1776.26 1796.22 1777.93 C 1793.77 1788.38 1781.64 1789.2 1775.12 1793.88 C 1764.16 1801.76 1755.87 1814.68 1745.04 1822.98 C 1707.68 1855.69 1662.55 1873.43 1614.37 1883.85 C 1575.13 1892.33 1526.38 1897.45 1486.04 1898.6 C 1459.8 1899.34 1431.38 1897.39 1404.37 1897.46 L 1250.98 1896.45 C 1181.05 1896.2 1112.17 1897.38 1042.41 1891.51 C 1020.28 1889.65 989.359 1895.72 966.385 1895.39 C 929.311 1894.84 891.976 1897.5 854.983 1898.42 C 840.491 1898.78 824.277 1897.39 809.513 1897.3 L 682.754 1897.49 C 600.731 1897.52 519.057 1900.95 439.27 1878.31 C 428.134 1875.15 396.371 1864.71 388.375 1858.6 L 388.101 1859.5 C 393.4 1864.14 403.789 1869.6 406.941 1873.28 C 405.748 1874.57 406.429 1873.92 404.859 1875.19 C 406.297 1877.32 406.695 1877.91 408.444 1879.77 C 389.51 1872.37 338.881 1836.47 335.548 1815.99 C 345.658 1822.08 362.788 1830.73 373.836 1835.17 C 378.294 1836.86 393.356 1837.89 396.578 1840.04 C 413.232 1851.13 425.864 1851.47 445.123 1854.3 C 451.284 1855.21 458.463 1862.82 467.742 1863.47 C 535.402 1868.18 603.316 1867.31 671.104 1867.29 L 1038 1866.48 L 1394.38 1867.42 C 1437.87 1867.28 1481.64 1867.92 1525 1865.63 C 1540.3 1864.83 1556.98 1865.17 1572.23 1863.63 C 1581.94 1862.48 1592.68 1857.74 1602.05 1856.14 C 1623.02 1852.58 1641.09 1848.94 1660.28 1839.47 C 1665.31 1836.98 1674.13 1835.7 1680.06 1832.99 C 1705.71 1821.25 1728.96 1805.3 1751.61 1788.67 C 1757.75 1784.16 1767.01 1773.99 1773.01 1768.49 C 1775.72 1764.96 1785.85 1759.47 1787.93 1756.15 C 1796.14 1743.04 1804.33 1730.17 1813.62 1717.77 C 1819.8 1709.53 1824.82 1699.23 1831.25 1691.39 L 1832.56 1689.82 z"/>
<path transform="translate(0,0)" fill="url(#Gradient1)" d="M 1012.81 548.457 C 1022.96 544.214 1026.6 543.546 1037.01 547.746 C 1062.38 560.85 1088 573.473 1113.85 585.608 C 1131.17 593.699 1146.19 599.3 1162.46 610.065 C 1169.13 614.481 1186.7 618.069 1194.04 622.516 C 1211.55 633.117 1241.76 642.817 1257.56 653.832 C 1293.55 700.919 1332.81 745.872 1371 791.154 C 1386.14 809.11 1399 829.459 1416.73 845.127 L 1417.45 846.075 C 1418 852.968 1376.91 923.487 1371.91 933.045 C 1339.96 994.08 1307.3 1054.79 1275.66 1115.99 C 1259.75 1146.77 1244.86 1178.23 1228.75 1208.95 C 1218.93 1227.02 1207.78 1245.47 1197.64 1263.92 C 1190.45 1274.54 1185.51 1288.58 1178.8 1300.09 C 1155.57 1340.02 1136.41 1382.31 1112.04 1421.71 C 1107.13 1429.66 1097.18 1454.73 1092.56 1459.44 C 1078.23 1489.61 1054.33 1529.32 1042.31 1561.71 C 1041.7 1563.36 1042.86 1567.15 1043.41 1568.9 C 1037.7 1574.45 1031 1587.25 1024.99 1588.72 C 1018.32 1586.16 1013.43 1577.46 1009.24 1571.49 C 995.409 1561.16 962.38 1523.35 950.392 1509.32 C 950.799 1509.6 932.897 1489.91 932.178 1489.13 L 866.683 1417.44 C 854.393 1404.18 839.318 1391.58 827.602 1378.29 C 809.189 1357.42 790.941 1336.1 772.044 1315.6 C 765.682 1308.7 757.861 1303.6 751.406 1296.43 C 746.607 1293.5 732.278 1276.09 727.354 1271.26 C 708.347 1252.62 690.837 1230.99 672.908 1211.73 C 640.35 1176.76 606.779 1142.68 573.928 1107.99 C 558.792 1091.72 543.552 1069.61 527.639 1054.33 C 507.579 1035.73 488.802 1016.04 469.798 996.223 C 452.99 978.699 436.201 956.356 420.345 937.776 C 412.097 928.111 399.775 926.327 392.801 909.536 C 391.888 907.337 369.704 889.395 367.056 885.043 C 359.476 877.274 353.142 867.63 346.296 859.877 C 343.19 858.765 343.066 858.814 340.394 856.959 C 342.254 853.809 342.257 853.787 341.572 850.214 C 343.775 848.436 351.874 847.954 356.137 846.996 C 364.674 845.718 386.069 846.172 395.845 846.111 L 477.444 845.947 L 561.095 846.002 C 571.057 846.008 591.73 845.295 600.495 846.016 L 600.611 843.832 L 609.646 835.357 C 616.584 830.505 640.248 801.188 647.793 792.422 L 735.037 691.047 C 746.095 678.12 753.863 667.395 766.098 654.306 C 777.469 644.078 802.412 638.472 817.53 632.033 L 936.442 580.829 C 962.702 569.627 986.623 560.636 1012.81 548.457 z"/>
<path transform="translate(0,0)" fill="rgb(249,243,98)" d="M 1012.81 548.457 C 1022.96 544.214 1026.6 543.546 1037.01 547.746 C 1062.38 560.85 1088 573.473 1113.85 585.608 C 1131.17 593.699 1146.19 599.3 1162.46 610.065 C 1169.13 614.481 1186.7 618.069 1194.04 622.516 C 1211.55 633.117 1241.76 642.817 1257.56 653.832 C 1293.55 700.919 1332.81 745.872 1371 791.154 C 1386.14 809.11 1399 829.459 1416.73 845.127 L 1417.45 846.075 C 1411.98 848.025 1217.61 846.334 1198.48 846.341 L 1067.65 846.439 C 1047.37 846.402 1024.15 847.242 1004.18 846.133 C 1004.08 834.77 981.973 826.079 973.367 818.257 C 963.816 809.576 954.799 798.11 944.399 790.81 C 931.039 781.431 913.724 773.943 900.363 764.016 C 886.052 749.619 874.92 740.036 857.24 729.012 C 851.846 725.649 843.749 713.989 837.64 709.747 C 818.579 696.51 799.126 682.77 782.166 666.884 C 771.733 664.973 768.33 665.886 766.098 654.306 C 777.469 644.078 802.412 638.472 817.53 632.033 L 936.442 580.829 C 962.702 569.627 986.623 560.636 1012.81 548.457 z"/>
<path transform="translate(0,0)" fill="rgb(162,58,13)" d="M 356.137 846.996 C 364.674 845.718 386.069 846.172 395.845 846.111 L 477.444 845.947 L 561.095 846.002 C 571.057 846.008 591.73 845.295 600.495 846.016 C 608.819 861.506 618.728 876.318 627.139 891.754 C 673.333 976.537 724.103 1058.64 770.396 1143.41 C 782.869 1166.25 801.021 1189.24 812.128 1213.62 C 814.855 1219.6 820.173 1226.1 822.654 1231.82 C 823.716 1243.54 849.564 1275.42 847.74 1284.08 C 844.021 1283.4 836.974 1281.91 833.392 1282.11 C 814.938 1283.12 801.107 1300.71 787.16 1311.16 C 786.958 1311.31 785.037 1320.73 782.861 1323.3 C 776.906 1321.06 757.682 1296.88 752.091 1296.02 L 751.406 1296.43 C 746.607 1293.5 732.278 1276.09 727.354 1271.26 C 708.347 1252.62 690.837 1230.99 672.908 1211.73 C 640.35 1176.76 606.779 1142.68 573.928 1107.99 C 558.792 1091.72 543.552 1069.61 527.639 1054.33 C 507.579 1035.73 488.802 1016.04 469.798 996.223 C 452.99 978.699 436.201 956.356 420.345 937.776 C 412.097 928.111 399.775 926.327 392.801 909.536 C 391.888 907.337 369.704 889.395 367.056 885.043 C 359.476 877.274 353.142 867.63 346.296 859.877 C 343.19 858.765 343.066 858.814 340.394 856.959 C 342.254 853.809 342.257 853.787 341.572 850.214 C 343.775 848.436 351.874 847.954 356.137 846.996 z"/>
<path transform="translate(0,0)" fill="rgb(246,207,93)" d="M 766.098 654.306 C 768.33 665.886 771.733 664.973 782.166 666.884 C 799.126 682.77 818.579 696.51 837.64 709.747 C 843.749 713.989 851.846 725.649 857.24 729.012 C 874.92 740.036 886.052 749.619 900.363 764.016 C 913.724 773.943 931.039 781.431 944.399 790.81 C 954.799 798.11 963.816 809.576 973.367 818.257 C 981.973 826.079 1004.08 834.77 1004.18 846.133 C 984.858 847.199 955.42 846.175 935.135 846.184 L 793.401 846.188 L 657.978 846.367 C 643.592 846.272 612.58 848.322 600.611 843.832 L 609.646 835.357 C 616.584 830.505 640.248 801.188 647.793 792.422 L 735.037 691.047 C 746.095 678.12 753.863 667.395 766.098 654.306 z"/>
<path transform="translate(0,0)" fill="rgb(203,100,35)" d="M 822.654 1231.82 C 860.795 1293.91 894.215 1360.95 932.692 1423.12 C 937.053 1430.17 941.669 1444.92 947.472 1450.28 C 953.561 1458.97 956.393 1462.99 960.5 1472.9 C 975.144 1499.31 991.424 1523.94 1001.36 1552.34 C 1003.73 1559.13 1007.23 1563.82 1009.24 1571.49 C 995.409 1561.16 962.38 1523.35 950.392 1509.32 C 950.799 1509.6 932.897 1489.91 932.178 1489.13 L 866.683 1417.44 C 854.393 1404.18 839.318 1391.58 827.602 1378.29 C 809.189 1357.42 790.941 1336.1 772.044 1315.6 C 765.682 1308.7 757.861 1303.6 751.406 1296.43 L 752.091 1296.02 C 757.682 1296.88 776.906 1321.06 782.861 1323.3 C 785.037 1320.73 786.958 1311.31 787.16 1311.16 C 801.107 1300.71 814.938 1283.12 833.392 1282.11 C 836.974 1281.91 844.021 1283.4 847.74 1284.08 C 849.564 1275.42 823.716 1243.54 822.654 1231.82 z"/>
<path transform="translate(0,0)" fill="rgb(240,129,15)" d="M 960.5 1472.9 C 975.144 1499.31 991.424 1523.94 1001.36 1552.34 C 1003.73 1559.13 1007.23 1563.82 1009.24 1571.49 C 995.409 1561.16 962.38 1523.35 950.392 1509.32 C 950.545 1509.24 950.681 1509.11 950.85 1509.08 C 955.53 1508.3 981.969 1544.78 989.178 1549.27 L 989.527 1548.18 L 987.326 1545.75 L 987.516 1543.97 L 989.222 1542.78 L 992.304 1543.68 L 993.523 1542.9 C 995.648 1530.27 983.837 1522.77 980.542 1513.91 C 975.074 1499.2 963.297 1487.59 960.5 1472.9 z"/>
<path transform="translate(0,0)" fill="rgb(246,207,93)" d="M 947.472 1450.28 L 949.12 1449.89 C 951.638 1453.27 968.546 1460.19 973.699 1463.37 C 983.057 1463.25 985.852 1463.49 994.91 1464.79 C 1008.13 1466.68 1020.16 1476.61 1031.66 1469.24 C 1038.05 1469.5 1044.43 1470.29 1050.61 1470.42 C 1058.28 1465.25 1072.05 1459.54 1080.81 1460.8 L 1082.08 1461.6 C 1083.08 1467.95 1075.1 1471.52 1074.73 1477.07 C 1076.86 1478.21 1075.87 1478.21 1077.76 1477.78 C 1080.83 1472.48 1086.33 1461.07 1092.56 1459.44 C 1078.23 1489.61 1054.33 1529.32 1042.31 1561.71 C 1041.7 1563.36 1042.86 1567.15 1043.41 1568.9 C 1037.7 1574.45 1031 1587.25 1024.99 1588.72 C 1018.32 1586.16 1013.43 1577.46 1009.24 1571.49 C 1007.23 1563.82 1003.73 1559.13 1001.36 1552.34 C 991.424 1523.94 975.144 1499.31 960.5 1472.9 C 956.393 1462.99 953.561 1458.97 947.472 1450.28 z"/>
<path transform="translate(0,0)" fill="rgb(162,58,13)" d="M 1440.85 545.118 L 1441.72 547.489 C 1445.09 550.072 1450.69 553.086 1453.33 555.689 C 1476.85 578.925 1498.21 603.745 1519.9 628.574 L 1602.8 721.726 L 1657.03 781.788 C 1662.55 787.972 1670.96 793.626 1676.06 799.957 C 1689.51 816.66 1706.71 831.257 1716.32 850.459 C 1697.76 863.768 1692.92 874.794 1678.69 890.237 L 1582.25 994.597 L 1370.4 1220.75 L 1319.21 1275.87 C 1315.71 1279.57 1303.36 1293.25 1299.73 1295.51 C 1294.79 1296.53 1285.24 1309.08 1281.7 1313.3 C 1273.56 1323.02 1264.94 1330.97 1256.37 1340.1 C 1247.24 1349.82 1238.55 1360.11 1228.96 1369.49 C 1226.41 1371.98 1223.37 1374.97 1220.68 1377.4 C 1220.67 1377.4 1216.43 1378.38 1216.43 1378.38 C 1214.21 1381.44 1211.78 1384.78 1209.3 1387.58 L 1207.6 1382.87 C 1202.66 1381.72 1195.65 1379.28 1191.28 1380.78 C 1189.17 1382.89 1189.5 1382.79 1187.06 1384.34 C 1185.08 1380.36 1185.59 1380.7 1181.87 1378.31 C 1172.29 1376.62 1155.34 1391.62 1144.52 1388.11 C 1143.5 1387.78 1135.78 1391.63 1133.41 1392.53 L 1131.77 1391.28 L 1132.01 1392.11 C 1131.87 1388.29 1141.11 1374.97 1143.79 1370.18 C 1152.63 1353.88 1160.78 1336.82 1169.45 1320.47 C 1175.76 1308.59 1196.93 1276.28 1197.64 1263.92 C 1207.78 1245.47 1218.93 1227.02 1228.75 1208.95 C 1244.86 1178.23 1259.75 1146.77 1275.66 1115.99 C 1307.3 1054.79 1339.96 994.08 1371.91 933.045 C 1376.91 923.487 1418 852.968 1417.45 846.075 L 1416.73 845.127 C 1399 829.459 1386.14 809.11 1371 791.154 C 1332.81 745.872 1293.55 700.919 1257.56 653.832 C 1279.48 637.629 1303.49 624.557 1326.9 610.631 C 1359.34 591.329 1390.42 573.253 1422.26 552.839 C 1432.32 553.281 1438.28 555.938 1440.85 545.118 z"/>
<path transform="translate(0,0)" fill="rgb(203,100,35)" d="M 1440.85 545.118 L 1441.72 547.489 C 1439.29 566.169 1436.44 577.451 1440.73 595.76 C 1437.52 602.118 1437.93 602.008 1436.35 608.564 C 1429.81 635.587 1432.13 661.667 1430.46 688.735 C 1429.11 710.61 1426.22 732.506 1426.84 754.695 C 1427.08 762.968 1421.7 783.063 1426.05 789.001 C 1426.47 789.57 1426.9 790.131 1427.35 790.683 C 1427.05 795.427 1422.02 800.665 1421.96 803.321 C 1421.7 816.177 1417.26 832.958 1416.73 845.127 C 1399 829.459 1386.14 809.11 1371 791.154 C 1332.81 745.872 1293.55 700.919 1257.56 653.832 C 1279.48 637.629 1303.49 624.557 1326.9 610.631 C 1359.34 591.329 1390.42 573.253 1422.26 552.839 C 1432.32 553.281 1438.28 555.938 1440.85 545.118 z"/>
<path transform="translate(0,0)" fill="rgb(246,166,18)" d="M 1043.22 539.51 C 1052.42 539.44 1061.62 539.465 1070.82 539.585 C 1107.33 540.604 1146.03 540.594 1182.7 539.918 C 1260.55 538.483 1340.03 542.262 1417.68 539.876 C 1422.06 540.144 1423.86 539.751 1427.03 542.371 C 1429.15 547.489 1426.01 549.549 1422.26 552.839 C 1390.42 573.253 1359.34 591.329 1326.9 610.631 C 1303.49 624.557 1279.48 637.629 1257.56 653.832 C 1241.76 642.817 1211.55 633.117 1194.04 622.516 C 1186.7 618.069 1169.13 614.481 1162.46 610.065 C 1146.19 599.3 1131.17 593.699 1113.85 585.608 C 1088 573.473 1062.38 560.85 1037.01 547.746 C 1039.26 544.922 1040.57 542.673 1043.22 539.51 z"/>
<path transform="translate(0,0)" fill="rgb(203,100,35)" d="M 1197.64 1263.92 C 1196.93 1276.28 1175.76 1308.59 1169.45 1320.47 C 1160.78 1336.82 1152.63 1353.88 1143.79 1370.18 C 1141.11 1374.97 1131.87 1388.29 1132.01 1392.11 L 1131.77 1391.28 L 1133.41 1392.53 C 1135.78 1391.63 1143.5 1387.78 1144.52 1388.11 C 1155.34 1391.62 1172.29 1376.62 1181.87 1378.31 C 1185.59 1380.7 1185.08 1380.36 1187.06 1384.34 C 1189.5 1382.79 1189.17 1382.89 1191.28 1380.78 C 1195.65 1379.28 1202.66 1381.72 1207.6 1382.87 L 1209.3 1387.58 C 1211.78 1384.78 1214.21 1381.44 1216.43 1378.38 C 1216.43 1378.38 1220.67 1377.4 1220.68 1377.4 C 1223.37 1374.97 1226.41 1371.98 1228.96 1369.49 C 1238.55 1360.11 1247.24 1349.82 1256.37 1340.1 C 1264.94 1330.97 1273.56 1323.02 1281.7 1313.3 C 1285.24 1309.08 1294.79 1296.53 1299.73 1295.51 C 1250.31 1352.21 1196.48 1404.43 1145.72 1459.52 L 1086.24 1524.77 C 1075.17 1537.03 1056.02 1559.22 1043.41 1568.9 C 1042.86 1567.15 1041.7 1563.36 1042.31 1561.71 C 1054.33 1529.32 1078.23 1489.61 1092.56 1459.44 C 1097.18 1454.73 1107.13 1429.66 1112.04 1421.71 C 1136.41 1382.31 1155.57 1340.02 1178.8 1300.09 C 1185.51 1288.58 1190.45 1274.54 1197.64 1263.92 z"/>
<path transform="translate(0,0)" fill="rgb(100,98,101)" d="M 1863.01 433.808 C 1865.99 438.599 1866.21 450.227 1866.92 456.551 C 1868.17 467.588 1874.06 482.409 1873.89 493.056 C 1873.45 521.489 1876.73 548.205 1879.57 576.195 C 1881.07 590.92 1879.23 612.95 1879.27 628.299 C 1879.75 670.013 1879.66 711.732 1879.01 753.444 L 1878.5 959.333 C 1878.44 966.761 1878.59 974.231 1878.82 981.66 C 1879.61 1007.87 1879.36 1034.37 1879.48 1060.6 C 1880.36 1166.92 1880.05 1273.25 1878.57 1379.56 C 1878.02 1417.84 1879.47 1455.29 1877.45 1494.65 C 1876.46 1513.8 1873.09 1551.78 1873.89 1572.54 C 1874.76 1573.14 1875.62 1573.75 1876.49 1574.36 C 1874.33 1574.98 1874.79 1574.57 1872 1573.9 C 1870.15 1585.07 1870.08 1586.05 1865.81 1596.11 C 1865 1598.04 1864.23 1615.34 1863.45 1619.26 C 1861.42 1629.4 1856.02 1640.07 1853.24 1649.32 C 1850.25 1659.24 1840.85 1675.17 1838.78 1682.73 C 1837.28 1685.18 1835.5 1689.16 1832.56 1689.82 C 1842.72 1666.32 1856.69 1641.74 1861.91 1615.82 C 1863.89 1606 1863.44 1590.9 1865.16 1580.35 C 1866.39 1571.01 1870.86 1561.26 1871.68 1551.95 C 1876.55 1496.8 1876.67 1441.64 1876.79 1386.37 L 1876.94 1158.66 L 1877.03 689.852 C 1876.64 638.443 1880.02 587.313 1873.05 536.268 C 1871.15 522.327 1873.74 502.241 1871.49 488.999 C 1868.04 468.714 1862.19 455.54 1863.01 433.808 z"/>
<path transform="translate(0,0)" fill="rgb(73,73,73)" d="M 1715.83 232.675 C 1728.01 238.519 1776.12 275.973 1782.32 286.214 L 1780.98 286.391 C 1778.23 284.827 1773.11 279.136 1770.66 276.611 L 1768.46 278.411 C 1764.82 277.981 1759.81 272.657 1758.68 272.4 C 1754.31 271.407 1751.05 273.539 1745.93 270.929 C 1742.75 267.728 1741.34 261.262 1744.53 257.675 L 1747.47 257.567 C 1743.37 253.692 1722.21 238.414 1717.16 235.415 L 1715.67 234.542 L 1715.83 232.675 z"/>
<path transform="translate(0,0)" fill="rgb(240,129,15)" d="M 1417.68 539.876 C 1424.29 539.02 1433.15 536.915 1438.77 540.253 C 1439.48 541.874 1440.21 543.471 1440.85 545.118 C 1438.28 555.938 1432.32 553.281 1422.26 552.839 C 1426.01 549.549 1429.15 547.489 1427.03 542.371 C 1423.86 539.751 1422.06 540.144 1417.68 539.876 z"/>
<path transform="translate(0,0)" fill="rgb(42,21,52)" d="M 1688.88 899.383 C 1689.81 898.866 1689.17 899.128 1690.92 899.066 C 1695.28 904.235 1699.26 908.504 1699.75 915.575 C 1700.42 925.409 1696.27 930.253 1686.75 930.822 C 1684.59 925.533 1684.14 917.557 1689.7 914.37 C 1694.18 914.757 1693.27 916.954 1696.95 916.749 C 1697.83 911.805 1691.76 905.269 1688.85 901.399 L 1688.88 899.383 z"/>
<path transform="translate(0,0)" fill="rgb(73,73,73)" d="M 322.34 888.365 C 326.925 891.443 323.908 893.572 326.645 897.76 C 327.567 896.129 328.474 894.508 329.246 892.8 C 331.482 895.802 334.327 899.948 333.35 903.856 L 332.716 903.643 L 331.991 905.858 L 331.993 908.53 L 330.47 909.26 L 329.617 906.451 L 330.679 904.642 C 327.157 902.382 325.505 901.597 322.785 898.513 C 321.4 893.514 321.209 893.267 322.34 888.365 z"/>
<path transform="translate(0,0)" fill="rgb(73,73,73)" d="M 316.371 883.322 L 316.641 883.611 C 317.229 887.915 318.297 890.041 319.965 893.961 L 319.538 889.543 C 321.122 892.312 321.089 895.553 320.148 898.509 L 319.193 898.855 L 317.501 893.437 L 317.029 895.154 L 319.311 903.404 C 313.629 900.526 311.096 890.053 313.359 883.793 L 314.708 884.378 L 316.371 883.322 z"/>
<path transform="translate(0,0)" fill="rgb(73,73,73)" d="M 336.774 893.469 C 339.245 895.696 341.517 897.636 341.81 900.875 L 339.393 903.451 C 336.983 902.081 336.541 901.45 334.577 899.534 C 334.183 896.245 334.493 897.074 336.774 893.469 z"/>
<path transform="translate(0,0)" fill="rgb(73,73,73)" d="M 324.355 907.448 L 324.825 907.315 C 327.603 908.042 327.066 908.353 329.288 911.118 C 331.915 912.193 331.038 911.774 333.262 913.754 C 331.524 913.854 329.596 913.833 327.839 913.855 L 326.292 912.294 C 326.082 909.751 325.998 909.538 324.355 907.448 z"/>
<path transform="translate(0,0)" fill="rgb(73,73,73)" d="M 329.321 914.934 C 330.597 916.159 329.878 915.591 331.889 916.75 L 333.529 917.675 L 333.151 920.986 C 330.739 920.549 330.852 920.667 328.864 919.271 C 328.04 916.466 328.098 917.889 329.321 914.934 z"/>
</svg>