<svg version="1.1" xmlns="http://www.w3.org/2000/svg" style="display: block;" viewBox="0 0 2048 2048" width="1024" height="1024">
<defs>
	<linearGradient id="Gradient1" gradientUnits="userSpaceOnUse" x1="1205.66" y1="959.203" x2="1444.57" y2="996.98">
		<stop offset="0" stop-opacity="1" stop-color="rgb(191,79,22)"/>
		<stop offset="1" stop-opacity="1" stop-color="rgb(221,103,32)"/>
	</linearGradient>
</defs>
<g transform="matrix(1.7 0 0 1.7 -715.712 -674.079)">
<path fill="rgb(248,178,44)" d="M 896.035 619.411 C 908.759 604.734 1017.8 469.25 1023.75 467.081 C 1058.3 507.671 1092.15 548.853 1125.29 590.608 C 1144.84 615.177 1163.5 637.816 1180.74 664.199 C 1201.26 695.596 1225.91 726.25 1245.55 758.177 C 1255.39 771.247 1265.07 792.386 1273.51 807.046 C 1330.69 906.321 1366.09 1016.67 1405.75 1123.66 C 1410.83 1137.38 1417.2 1153.94 1420.97 1167.78 C 1364.19 1168.57 1307.19 1167.43 1250.38 1167.78 C 1242.1 1167.83 1233.41 1167.96 1225.17 1167.7 L 1223.85 1166.13 L 1218.86 1170.22 C 1220.62 1177.2 1208.82 1207.31 1206.04 1215.92 C 1197.36 1242.8 1188.62 1269.78 1180.09 1296.72 C 1174.84 1313.49 1165.2 1340.17 1163.07 1356.82 L 1169.53 1360.88 C 1181.23 1359.92 1243.49 1390.03 1258.07 1393.86 C 1263.33 1395.25 1292.98 1408.05 1298.15 1411.05 C 1291.52 1415.27 1254.58 1430.61 1245.01 1435.09 C 1171.87 1469.18 1097.72 1501.06 1022.65 1530.66 C 945.653 1499.72 869.381 1467.01 793.894 1432.55 C 784.016 1427.94 756.104 1416.65 748.732 1411.01 L 747.862 1410.74 C 745.125 1408.16 730.629 1378.2 727.9 1372.84 C 705.101 1328.01 682.598 1283.04 660.392 1237.92 C 650.672 1218.19 636.259 1186.29 625.759 1167.82 C 643.369 1116.92 661.549 1066.21 680.295 1015.71 C 706.483 945.168 733.248 875.651 771.339 810.626 C 781.468 793.335 789.648 773.057 801.122 756.716 C 824.196 722.633 847.633 688.798 871.428 655.216 C 880.279 642.681 885.769 631.053 896.035 619.411 z"/>
<path fill="rgb(204,75,23)" d="M 822.276 1166.89 L 823.436 1168.02 C 869.527 1196.92 917.214 1223.34 963.696 1251.51 C 979.655 1261.18 1008.18 1275.92 1022.1 1286.34 L 1030.6 1281.06 C 1029.04 1284.43 1028.33 1284.42 1028.89 1287.39 C 1058.8 1303.79 1089.02 1319.61 1119.55 1334.83 C 1131.43 1340.88 1151.46 1352.15 1163.07 1356.82 L 1169.53 1360.88 C 1181.23 1359.92 1243.49 1390.03 1258.07 1393.86 C 1263.33 1395.25 1292.98 1408.05 1298.15 1411.05 C 1291.52 1415.27 1254.58 1430.61 1245.01 1435.09 C 1171.87 1469.18 1097.72 1501.06 1022.65 1530.66 C 945.653 1499.72 869.381 1467.01 793.894 1432.55 C 784.016 1427.94 756.104 1416.65 748.732 1411.01 L 747.862 1410.74 C 745.125 1408.16 730.629 1378.2 727.9 1372.84 C 705.101 1328.01 682.598 1283.04 660.392 1237.92 C 650.672 1218.19 636.259 1186.29 625.759 1167.82 L 786.612 1167.8 C 793.627 1166.94 814.191 1167.06 822.276 1166.89 z"/>
<path fill="rgb(114,32,18)" d="M 822.276 1166.89 L 823.436 1168.02 C 825.575 1176.82 832.154 1195.09 834.759 1202.84 C 841.121 1221.77 878.888 1346.02 876.585 1358.26 C 866.271 1363.18 852.617 1367.84 841.725 1372.1 C 820.324 1380.45 799.01 1389.03 777.786 1397.82 C 771.463 1400.45 753.414 1407.67 748.732 1411.01 L 747.862 1410.74 C 745.125 1408.16 730.629 1378.2 727.9 1372.84 C 705.101 1328.01 682.598 1283.04 660.392 1237.92 C 650.672 1218.19 636.259 1186.29 625.759 1167.82 L 786.612 1167.8 C 793.627 1166.94 814.191 1167.06 822.276 1166.89 z"/>
<path fill="rgb(170,61,17)" d="M 822.276 1166.89 L 823.436 1168.02 C 825.575 1176.82 832.154 1195.09 834.759 1202.84 C 841.121 1221.77 878.888 1346.02 876.585 1358.26 C 866.271 1363.18 852.617 1367.84 841.725 1372.1 C 820.324 1380.45 799.01 1389.03 777.786 1397.82 C 771.463 1400.45 753.414 1407.67 748.732 1411.01 L 747.862 1410.74 C 748.935 1404.31 753.672 1389.64 755.786 1382.57 L 773.49 1324.59 C 789.055 1273.4 804.452 1218.62 820.864 1167.98 C 809.366 1168.08 798.111 1168.24 786.612 1167.8 C 793.627 1166.94 814.191 1167.06 822.276 1166.89 z"/>
<path fill="rgb(114,32,18)" d="M 748.732 1411.01 C 753.414 1407.67 771.463 1400.45 777.786 1397.82 C 799.01 1389.03 820.324 1380.45 841.725 1372.1 C 852.617 1367.84 866.271 1363.18 876.585 1358.26 C 879.138 1363.64 897.896 1382.16 903.616 1388.57 C 934.65 1423.91 965.978 1458.98 997.595 1493.79 C 1003.03 1499.85 1018.51 1518.54 1023.19 1522.96 C 1037.88 1505.15 1156.5 1368.84 1169.53 1360.88 C 1181.23 1359.92 1243.49 1390.03 1258.07 1393.86 C 1263.33 1395.25 1292.98 1408.05 1298.15 1411.05 C 1291.52 1415.27 1254.58 1430.61 1245.01 1435.09 C 1171.87 1469.18 1097.72 1501.06 1022.65 1530.66 C 945.653 1499.72 869.381 1467.01 793.894 1432.55 C 784.016 1427.94 756.104 1416.65 748.732 1411.01 z"/>
<path fill="rgb(148,45,16)" d="M 1022.1 1286.34 L 1030.6 1281.06 C 1029.04 1284.43 1028.33 1284.42 1028.89 1287.39 C 1058.8 1303.79 1089.02 1319.61 1119.55 1334.83 C 1131.43 1340.88 1151.46 1352.15 1163.07 1356.82 L 1169.53 1360.88 C 1156.5 1368.84 1037.88 1505.15 1023.19 1522.96 L 1022.1 1286.34 z"/>
<path fill="url(#Gradient1)" d="M 1245.55 758.177 C 1255.39 771.247 1265.07 792.386 1273.51 807.046 C 1330.69 906.321 1366.09 1016.67 1405.75 1123.66 C 1410.83 1137.38 1417.2 1153.94 1420.97 1167.78 C 1364.19 1168.57 1307.19 1167.43 1250.38 1167.78 C 1242.1 1167.83 1233.41 1167.96 1225.17 1167.7 L 1223.85 1166.13 C 1216.85 1134.04 1211.54 1100.61 1205.21 1068.27 C 1202.14 1052.54 1198.19 1032.42 1196.41 1016.69 C 1195.69 1010.3 1200.54 988.632 1201.97 981.489 L 1211.41 933.376 C 1222.21 877.315 1232.87 813.154 1245.55 758.177 z"/>
<path fill="rgb(230,119,35)" d="M 625.759 1167.82 C 643.369 1116.92 661.549 1066.21 680.295 1015.71 C 706.483 945.168 733.248 875.651 771.339 810.626 C 781.468 793.335 789.648 773.057 801.122 756.716 C 814.991 820.599 824.08 888.478 837.733 952.66 C 839.423 960.605 846.086 1001.2 847.875 1005.81 C 848.354 1008.85 849.437 1015.63 849.07 1018.41 C 845.506 1045.46 839.58 1074.17 834.497 1100.91 L 825.903 1146.25 C 824.942 1151.51 823.496 1162.12 822.276 1166.89 C 814.191 1167.06 793.627 1166.94 786.612 1167.8 L 625.759 1167.82 z"/>
<path fill="rgb(251,212,76)" d="M 801.122 756.716 C 824.196 722.633 847.633 688.798 871.428 655.216 C 880.279 642.681 885.769 631.053 896.035 619.411 C 899.654 631.521 901.239 654.347 902.525 667.457 L 909.683 740.745 C 910.184 745.813 911.632 765.306 913.499 768.847 C 894.65 848.224 873.74 931.604 851.549 1010.16 C 851.459 1010.7 851.368 1011.24 851.278 1011.77 C 849.55 1009.15 849.571 1007.99 847.875 1005.81 C 846.086 1001.2 839.423 960.605 837.733 952.66 C 824.08 888.478 814.991 820.599 801.122 756.716 z"/>
<path fill="rgb(252,249,133)" d="M 896.035 619.411 C 908.759 604.734 1017.8 469.25 1023.75 467.081 C 1024.92 505.343 1023.71 550.243 1023.38 588.722 C 1009.1 609.28 990.696 641.979 977.456 663.968 L 913.499 768.847 C 911.632 765.306 910.184 745.813 909.683 740.745 L 902.525 667.457 C 901.239 654.347 899.654 631.521 896.035 619.411 z"/>
<path fill="rgb(170,61,17)" d="M 1030.6 1281.06 C 1054.76 1266.43 1080.02 1252.39 1104.45 1238.05 L 1218.86 1170.22 C 1220.62 1177.2 1208.82 1207.31 1206.04 1215.92 C 1197.36 1242.8 1188.62 1269.78 1180.09 1296.72 C 1174.84 1313.49 1165.2 1340.17 1163.07 1356.82 C 1151.46 1352.15 1131.43 1340.88 1119.55 1334.83 C 1089.02 1319.61 1058.8 1303.79 1028.89 1287.39 C 1028.33 1284.42 1029.04 1284.43 1030.6 1281.06 z"/>
<path fill="rgb(114,32,18)" d="M 1223.85 1166.13 L 1225.17 1167.7 C 1233.41 1167.96 1242.1 1167.83 1250.38 1167.78 C 1307.19 1167.43 1364.19 1168.57 1420.97 1167.78 L 1338.13 1334.56 C 1330.19 1350.42 1322.15 1366.22 1314.02 1381.98 C 1310.2 1389.29 1302.29 1403.45 1299.45 1410.76 L 1298.15 1411.05 C 1292.98 1408.05 1263.33 1395.25 1258.07 1393.86 C 1243.49 1390.03 1181.23 1359.92 1169.53 1360.88 L 1163.07 1356.82 C 1165.2 1340.17 1174.84 1313.49 1180.09 1296.72 C 1188.62 1269.78 1197.36 1242.8 1206.04 1215.92 C 1208.82 1207.31 1220.62 1177.2 1218.86 1170.22 L 1223.85 1166.13 z"/>
<path fill="rgb(148,45,16)" d="M 1223.85 1166.13 L 1225.17 1167.7 C 1230.39 1188.58 1239.25 1213.89 1245.59 1234.96 L 1299.45 1410.76 L 1298.15 1411.05 C 1292.98 1408.05 1263.33 1395.25 1258.07 1393.86 C 1243.49 1390.03 1181.23 1359.92 1169.53 1360.88 L 1163.07 1356.82 C 1165.2 1340.17 1174.84 1313.49 1180.09 1296.72 C 1188.62 1269.78 1197.36 1242.8 1206.04 1215.92 C 1208.82 1207.31 1220.62 1177.2 1218.86 1170.22 L 1223.85 1166.13 z"/>
</g>
</svg>
